<?xml version="1.0" encoding="UTF-8"?>
<svg xmlns="http://www.w3.org/2000/svg" xmlns:xlink="http://www.w3.org/1999/xlink" contentScriptType="text/ecmascript" width="375" zoomAndPan="magnify" contentStyleType="text/css" viewBox="0 0 375 374.999991" height="374.999991" preserveAspectRatio="xMidYMid meet" version="1.0">
	<defs>
		<clipPath id="clip-0">
			<path d="M 105 101.015625 L 374 101.015625 L 374 274 L 105 274 Z M 105 101.015625 " clip-rule="nonzero" />
		</clipPath>
		<clipPath id="clip-1">
			<path d="M 1 101.015625 L 270 101.015625 L 270 274 L 1 274 Z M 1 101.015625 " clip-rule="nonzero" />
		</clipPath>
	</defs>
	<g clip-path="url(#clip-0)">
		<path fill="rgb(25.878906%, 65.879822%, 87.449646%)" d="M 289.273438 101.5 C 263.839844 101.027344 240.878906 111.625 224.84375 128.792969 C 217.671875 136.472656 219.914062 148.933594 229.214844 153.816406 C 235.570312 157.15625 243.453125 155.996094 248.363281 150.753906 C 258.1875 140.257812 272.148438 133.699219 287.644531 133.699219 C 317.792969 133.699219 342.15625 158.515625 341.484375 188.867188 C 341.035156 209.128906 329.019531 227.511719 310.804688 236.34375 C 283.402344 249.625 255.984375 232.167969 232.03125 219.421875 C 197.691406 201.152344 163.355469 182.882812 129.019531 164.609375 C 121.316406 160.511719 111.761719 163.46875 107.707031 171.207031 C 103.707031 178.839844 106.570312 188.273438 114.140625 192.382812 C 124.585938 198.050781 137.332031 205.5 139.5 206.640625 C 153.492188 213.988281 167.476562 221.332031 181.464844 228.679688 C 198.707031 237.734375 215.808594 247.066406 233.230469 255.769531 C 250.839844 264.5625 267.527344 273.796875 287.644531 273.796875 C 335.851562 273.796875 374.796875 234.074219 373.632812 185.527344 C 372.539062 139.660156 335.070312 102.347656 289.273438 101.5 " fill-opacity="1" fill-rule="nonzero" />
	</g>
	<g clip-path="url(#clip-1)">
		<path fill="rgb(95.689392%, 96.469116%, 98.81897%)" d="M 85.664062 273.78125 C 111.097656 274.253906 134.058594 263.65625 150.09375 246.488281 C 157.261719 238.808594 155.023438 226.347656 145.722656 221.464844 L 145.21875 221.199219 C 138.972656 217.917969 131.394531 219.375 126.574219 224.527344 C 116.75 235.023438 102.789062 241.582031 87.292969 241.582031 C 57.144531 241.582031 32.78125 216.765625 33.453125 186.414062 C 33.902344 166.152344 45.917969 147.769531 64.132812 138.9375 C 91.535156 125.65625 118.953125 143.113281 142.90625 155.859375 C 177.246094 174.128906 211.582031 192.398438 245.917969 210.671875 C 253.617188 214.769531 263.175781 211.8125 267.230469 204.074219 C 271.230469 196.441406 268.363281 187.003906 260.792969 182.898438 C 250.351562 177.230469 237.605469 169.78125 235.433594 168.640625 C 221.445312 161.292969 207.460938 153.949219 193.472656 146.601562 C 176.230469 137.546875 159.128906 128.214844 141.707031 119.511719 C 124.097656 110.71875 107.40625 101.484375 87.292969 101.484375 C 39.085938 101.484375 0.140625 141.207031 1.300781 189.753906 C 2.398438 235.621094 39.867188 272.933594 85.664062 273.78125 " fill-opacity="1" fill-rule="nonzero" />
	</g>
</svg>
